Courier Prime Sans Bold.ufo
<glyph name="quotesingle" format="1">
  <advance width="1228"/>
  <unicode hex="0027"/>
  <outline>
    <contour>
      <point x="497" y="1269" type="line" smooth="yes"/>
      <point x="467" y="1269"/>
      <point x="452" y="1254"/>
      <point x="456" y="1219" type="curve" smooth="yes"/>
      <point x="511" y="739" type="line" smooth="yes"/>
      <point x="516" y="698"/>
      <point x="542" y="671"/>
      <point x="614" y="671" type="curve" smooth="yes"/>
      <point x="686" y="671"/>
      <point x="712" y="698"/>
      <point x="717" y="739" type="curve" smooth="yes"/>
      <point x="772" y="1219" type="line" smooth="yes"/>
      <point x="776" y="1254"/>
      <point x="761" y="1269"/>
      <point x="731" y="1269" type="curve" smooth="yes"/>
    </contour>
  </outline>
</glyph>
<glyph name="A" format="1">
  <advance width="1228"/>
  <unicode hex="0041"/>
  <outline>
    <contour>
      <point x="531" y="1209"/>
      <point x="494" y="1191"/>
      <point x="476" y="1144" type="curve" smooth="yes"/>
      <point x="77" y="97" type="line"/>
      <point x="60" y="52"/>
      <point x="78" y="20"/>
      <point x="172" y="-2" type="curve" smooth="yes"/>
      <point x="265" y="-24"/>
      <point x="304" y="-17"/>
      <point x="321" y="27" type="curve" smooth="yes"/>
      <point x="442" y="354" type="line"/>
      <point x="455" y="409" type="line"/>
      <point x="613" y="865" type="line"/>
      <point x="617" y="865" type="line"/>
      <point x="770" y="409" type="line"/>
      <point x="782" y="354" type="line"/>
      <point x="899" y="27" type="line" smooth="yes"/>
      <point x="915" y="-17"/>
      <point x="956" y="-24"/>
      <point x="1049" y="-2" type="curve" smooth="yes"/>
      <point x="1143" y="20"/>
      <point x="1163" y="52"/>
      <point x="1146" y="97" type="curve" smooth="yes"/>
      <point x="760" y="1144" type="line" smooth="yes"/>
      <point x="743" y="1190"/>
      <point x="707" y="1209"/>
      <point x="619" y="1209" type="curve" smooth="yes"/>
    </contour>
    <contour>
      <point x="339" y="455" type="line"/>
      <point x="339" y="220" type="line"/>
      <point x="903" y="220" type="line"/>
      <point x="903" y="455" type="line"/>
    </contour>
  </outline>
</glyph>
<glyph name="C" format="1">
  <advance width="1228"/>
  <unicode hex="0043"/>
  <outline>
    <contour>
      <point x="344" y="1209"/>
      <point x="126" y="974"/>
      <point x="126" y="594" type="curve" smooth="yes"/>
      <point x="126" y="214"/>
      <point x="344" y="-22"/>
      <point x="674" y="-22" type="curve" smooth="yes"/>
      <point x="815" y="-22"/>
      <point x="945" y="9"/>
      <point x="1061" y="65" type="curve" smooth="yes"/>
      <point x="1104" y="86"/>
      <point x="1121" y="127"/>
      <point x="1093" y="208" type="curve" smooth="yes"/>
      <point x="1066" y="288"/>
      <point x="1025" y="304"/>
      <point x="985" y="285" type="curve" smooth="yes"/>
      <point x="885" y="238"/>
      <point x="793" y="215"/>
      <point x="684" y="215" type="curve" smooth="yes"/>
      <point x="497" y="215"/>
      <point x="388" y="346"/>
      <point x="388" y="594" type="curve" smooth="yes"/>
      <point x="388" y="842"/>
      <point x="497" y="972"/>
      <point x="684" y="972" type="curve" smooth="yes"/>
      <point x="793" y="972"/>
      <point x="885" y="949"/>
      <point x="985" y="902" type="curve" smooth="yes"/>
      <point x="1025" y="883"/>
      <point x="1066" y="899"/>
      <point x="1093" y="979" type="curve" smooth="yes"/>
      <point x="1121" y="1060"/>
      <point x="1104" y="1101"/>
      <point x="1061" y="1122" type="curve" smooth="yes"/>
      <point x="945" y="1178"/>
      <point x="815" y="1209"/>
      <point x="674" y="1209" type="curve" smooth="yes"/>
    </contour>
    <contour>
      <point x="674" y="1187" type="move" name="top"/>
    </contour>
    <contour>
      <point x="684" y="0" type="move" name="bottom"/>
    </contour>
  </outline>
</glyph>
<glyph name="J" format="1">
  <advance width="1228"/>
  <unicode hex="004A"/>
  <outline>
    <contour>
      <point x="729" y="1187" type="line"/>
      <point x="729" y="383" type="line" smooth="yes"/>
      <point x="729" y="266"/>
      <point x="674" y="215"/>
      <point x="573" y="215" type="curve" smooth="yes"/>
      <point x="485" y="215"/>
      <point x="383" y="245"/>
      <point x="288" y="295" type="curve" smooth="yes"/>
      <point x="250" y="315"/>
      <point x="210" y="305"/>
      <point x="174" y="227" type="curve" smooth="yes"/>
      <point x="138" y="149"/>
      <point x="149" y="108"/>
      <point x="190" y="83" type="curve" smooth="yes"/>
      <point x="300" y="17"/>
      <point x="441" y="-22"/>
      <point x="572" y="-22" type="curve" smooth="yes"/>
      <point x="839" y="-22"/>
      <point x="979" y="105"/>
      <point x="979" y="363" type="curve" smooth="yes"/>
      <point x="979" y="1124" type="line" smooth="yes"/>
      <point x="979" y="1169"/>
      <point x="961" y="1187"/>
      <point x="916" y="1187" type="curve" smooth="yes"/>
    </contour>
    <contour>
      <point x="413" y="1187" type="line" smooth="yes"/>
      <point x="368" y="1187"/>
      <point x="350" y="1164"/>
      <point x="350" y="1069" type="curve" smooth="yes"/>
      <point x="350" y="974"/>
      <point x="368" y="952"/>
      <point x="413" y="952" type="curve" smooth="yes"/>
      <point x="855" y="952" type="line"/>
      <point x="855" y="1187" type="line"/>
    </contour>
  </outline>
</glyph>
<glyph name="L" format="1">
  <advance width="1228"/>
  <unicode hex="004C"/>
  <outline>
    <contour>
      <point x="272" y="1187" type="line" smooth="yes"/>
      <point x="227" y="1187"/>
      <point x="209" y="1169"/>
      <point x="209" y="1124" type="curve" smooth="yes"/>
      <point x="209" y="63" type="line" smooth="yes"/>
      <point x="209" y="18"/>
      <point x="227" y="0"/>
      <point x="272" y="0" type="curve" smooth="yes"/>
      <point x="459" y="0" type="line"/>
      <point x="459" y="1124" type="line" smooth="yes"/>
      <point x="459" y="1169"/>
      <point x="441" y="1187"/>
      <point x="396" y="1187" type="curve" smooth="yes"/>
    </contour>
    <contour>
      <point x="353" y="235" type="line"/>
      <point x="353" y="0" type="line"/>
      <point x="1005" y="0" type="line" smooth="yes"/>
      <point x="1050" y="0"/>
      <point x="1068" y="22"/>
      <point x="1068" y="117" type="curve" smooth="yes"/>
      <point x="1068" y="212"/>
      <point x="1050" y="235"/>
      <point x="1005" y="235" type="curve" smooth="yes"/>
    </contour>
  </outline>
</glyph>
<glyph name="M" format="1">
  <advance width="1228"/>
  <unicode hex="004D"/>
  <outline>
    <contour>
      <point x="910" y="1187" type="line" smooth="yes"/>
      <point x="883" y="1187"/>
      <point x="867" y="1179"/>
      <point x="856" y="1156" type="curve" smooth="yes"/>
      <point x="614" y="665" type="line"/>
      <point x="371" y="1156" type="line" smooth="yes"/>
      <point x="360" y="1179"/>
      <point x="344" y="1187"/>
      <point x="317" y="1187" type="curve" smooth="yes"/>
      <point x="203" y="1187" type="line" smooth="yes"/>
      <point x="158" y="1187"/>
      <point x="141" y="1169"/>
      <point x="140" y="1124" type="curve" smooth="yes"/>
      <point x="120" y="63" type="line" smooth="yes"/>
      <point x="119" y="18"/>
      <point x="138" y="0"/>
      <point x="183" y="0" type="curve" smooth="yes"/>
      <point x="290" y="0" type="line" smooth="yes"/>
      <point x="335" y="0"/>
      <point x="353" y="18"/>
      <point x="353" y="63" type="curve" smooth="yes"/>
      <point x="359" y="684" type="line"/>
      <point x="512" y="375" type="line" smooth="yes"/>
      <point x="534" y="331"/>
      <point x="558" y="315"/>
      <point x="615" y="315" type="curve" smooth="yes"/>
      <point x="672" y="315"/>
      <point x="695" y="332"/>
      <point x="716" y="375" type="curve" smooth="yes"/>
      <point x="868" y="687" type="line"/>
      <point x="875" y="63" type="line" smooth="yes"/>
      <point x="875" y="18"/>
      <point x="893" y="0"/>
      <point x="938" y="0" type="curve" smooth="yes"/>
      <point x="1045" y="0" type="line" smooth="yes"/>
      <point x="1090" y="0"/>
      <point x="1109" y="18"/>
      <point x="1108" y="63" type="curve" smooth="yes"/>
      <point x="1088" y="1124" type="line" smooth="yes"/>
      <point x="1087" y="1169"/>
      <point x="1070" y="1187"/>
      <point x="1025" y="1187" type="curve" smooth="yes"/>
    </contour>
  </outline>
</glyph>
<glyph name="P" format="1">
  <advance width="1228"/>
  <unicode hex="0050"/>
  <outline>
    <contour>
      <point x="362" y="1187" type="line"/>
      <point x="362" y="952" type="line"/>
      <point x="609" y="952" type="line" smooth="yes"/>
      <point x="766" y="952"/>
      <point x="849" y="894"/>
      <point x="849" y="765" type="curve" smooth="yes"/>
      <point x="849" y="636"/>
      <point x="766" y="577"/>
      <point x="609" y="577" type="curve" smooth="yes"/>
      <point x="362" y="577" type="line"/>
      <point x="362" y="342" type="line"/>
      <point x="640" y="342" type="line" smooth="yes"/>
      <point x="950" y="342"/>
      <point x="1107" y="508"/>
      <point x="1107" y="765" type="curve" smooth="yes"/>
      <point x="1107" y="1022"/>
      <point x="950" y="1187"/>
      <point x="640" y="1187" type="curve" smooth="yes"/>
    </contour>
    <contour>
      <point x="263" y="1187" type="line" smooth="yes"/>
      <point x="218" y="1187"/>
      <point x="200" y="1169"/>
      <point x="200" y="1124" type="curve" smooth="yes"/>
      <point x="200" y="63" type="line" smooth="yes"/>
      <point x="200" y="18"/>
      <point x="218" y="0"/>
      <point x="263" y="0" type="curve" smooth="yes"/>
      <point x="387" y="0" type="line"/>
      <point x="432" y="0"/>
      <point x="450" y="18"/>
      <point x="450" y="63" type="curve" smooth="yes"/>
      <point x="450" y="1187" type="line"/>
    </contour>
  </outline>
</glyph>
<glyph name="R" format="1">
  <advance width="1228"/>
  <unicode hex="0052"/>
  <outline>
    <contour>
      <point x="352" y="1187" type="line"/>
      <point x="352" y="952" type="line"/>
      <point x="619" y="952" type="line" smooth="yes"/>
      <point x="756" y="952"/>
      <point x="819" y="903"/>
      <point x="819" y="794" type="curve" smooth="yes"/>
      <point x="819" y="685"/>
      <point x="756" y="636"/>
      <point x="619" y="636" type="curve" smooth="yes"/>
      <point x="352" y="636" type="line"/>
      <point x="352" y="401" type="line"/>
      <point x="640" y="401" type="line" smooth="yes"/>
      <point x="920" y="401"/>
      <point x="1077" y="547"/>
      <point x="1077" y="794" type="curve" smooth="yes"/>
      <point x="1077" y="1041"/>
      <point x="920" y="1187"/>
      <point x="640" y="1187" type="curve" smooth="yes"/>
    </contour>
    <contour>
      <point x="253" y="1187" type="line" smooth="yes"/>
      <point x="209" y="1187"/>
      <point x="190" y="1169"/>
      <point x="190" y="1124" type="curve" smooth="yes"/>
      <point x="190" y="63" type="line" smooth="yes"/>
      <point x="190" y="18"/>
      <point x="208" y="0"/>
      <point x="253" y="0" type="curve" smooth="yes"/>
      <point x="377" y="0" type="line" smooth="yes"/>
      <point x="422" y="0"/>
      <point x="440" y="18"/>
      <point x="440" y="63" type="curve" smooth="yes"/>
      <point x="440" y="1187" type="line"/>
    </contour>
    <contour>
      <point x="544" y="499" type="line"/>
      <point x="836" y="18" type="line" smooth="yes"/>
      <point x="861" y="-23"/>
      <point x="899" y="-22"/>
      <point x="988" y="14" type="curve" smooth="yes"/>
      <point x="1077" y="51"/>
      <point x="1087" y="87"/>
      <point x="1062" y="128" type="curve" smooth="yes"/>
      <point x="793" y="559" type="line"/>
    </contour>
  </outline>
</glyph>
<glyph name="a" format="1">
  <advance width="1228"/>
  <unicode hex="0061"/>
  <outline>
    <contour>
      <point x="518" y="946"/>
      <point x="375" y="927"/>
      <point x="250" y="882" type="curve" smooth="yes"/>
      <point x="203" y="865"/>
      <point x="190" y="822"/>
      <point x="219" y="742" type="curve" smooth="yes"/>
      <point x="248" y="662"/>
      <point x="286" y="652"/>
      <point x="328" y="666" type="curve" smooth="yes"/>
      <point x="419" y="697"/>
      <point x="522" y="719"/>
      <point x="603" y="719" type="curve" smooth="yes"/>
      <point x="749" y="719"/>
      <point x="793" y="674"/>
      <point x="793" y="588" type="curve" smooth="yes"/>
      <point x="793" y="276" type="line"/>
      <point x="823" y="112" type="line"/>
      <point x="823" y="63" type="line" smooth="yes"/>
      <point x="823" y="18"/>
      <point x="841" y="0"/>
      <point x="886" y="0" type="curve" smooth="yes"/>
      <point x="980" y="0" type="line" smooth="yes"/>
      <point x="1025" y="0"/>
      <point x="1043" y="18"/>
      <point x="1043" y="63" type="curve" smooth="yes"/>
      <point x="1043" y="579" type="line" smooth="yes"/>
      <point x="1043" y="804"/>
      <point x="932" y="946"/>
      <point x="627" y="946" type="curve" smooth="yes"/>
    </contour>
    <contour>
      <point x="277" y="589"/>
      <point x="140" y="482"/>
      <point x="140" y="295" type="curve" smooth="yes"/>
      <point x="140" y="100"/>
      <point x="272" y="-22"/>
      <point x="498" y="-22" type="curve" smooth="yes"/>
      <point x="625" y="-22"/>
      <point x="744" y="27"/>
      <point x="846" y="106" type="curve"/>
      <point x="805" y="302" type="line"/>
      <point x="728" y="236"/>
      <point x="630" y="189"/>
      <point x="530" y="189" type="curve" smooth="yes"/>
      <point x="441" y="189"/>
      <point x="392" y="222"/>
      <point x="392" y="285" type="curve" smooth="yes"/>
      <point x="392" y="348"/>
      <point x="441" y="383"/>
      <point x="535" y="383" type="curve" smooth="yes"/>
      <point x="621" y="383"/>
      <point x="710" y="374"/>
      <point x="810" y="352" type="curve"/>
      <point x="810" y="556" type="line"/>
      <point x="704" y="578"/>
      <point x="604" y="589"/>
      <point x="510" y="589" type="curve" smooth="yes"/>
    </contour>
  </outline>
</glyph>
<glyph name="s" format="1">
  <advance width="1228"/>
  <unicode hex="0073"/>
  <outline>
    <contour>
      <point x="932" y="-22"/>
      <point x="1071" y="108"/>
      <point x="1071" y="297" type="curve" smooth="yes"/>
      <point x="1071" y="431"/>
      <point x="998" y="499"/>
      <point x="900" y="535" type="curve" smooth="yes"/>
      <point x="767" y="585"/>
      <point x="590" y="576"/>
      <point x="493" y="596" type="curve" smooth="yes"/>
      <point x="449" y="605"/>
      <point x="422" y="620"/>
      <point x="422" y="649" type="curve" smooth="yes"/>
      <point x="422" y="704"/>
      <point x="467" y="734"/>
      <point x="578" y="734" type="curve" smooth="yes"/>
      <point x="681" y="734"/>
      <point x="799" y="715"/>
      <point x="928" y="669" type="curve" smooth="yes"/>
      <point x="969" y="654"/>
      <point x="1007" y="672"/>
      <point x="1028" y="748" type="curve" smooth="yes"/>
      <point x="1050" y="825"/>
      <point x="1029" y="859"/>
      <point x="986" y="874" type="curve" smooth="yes"/>
      <point x="848" y="921"/>
      <point x="694" y="946"/>
      <point x="556" y="946" type="curve" smooth="yes"/>
      <point x="320" y="946"/>
      <point x="164" y="833"/>
      <point x="164" y="645" type="curve" smooth="yes"/>
      <point x="164" y="525"/>
      <point x="220" y="456"/>
      <point x="299" y="415" type="curve" smooth="yes"/>
      <point x="427" y="348"/>
      <point x="615" y="354"/>
      <point x="724" y="334" type="curve" smooth="yes"/>
      <point x="777" y="324"/>
      <point x="812" y="309"/>
      <point x="812" y="276" type="curve" smooth="yes"/>
      <point x="812" y="223"/>
      <point x="765" y="190"/>
      <point x="624" y="190" type="curve" smooth="yes"/>
      <point x="521" y="190"/>
      <point x="403" y="209"/>
      <point x="274" y="255" type="curve" smooth="yes"/>
      <point x="233" y="270"/>
      <point x="195" y="252"/>
      <point x="174" y="176" type="curve" smooth="yes"/>
      <point x="152" y="99"/>
      <point x="173" y="65"/>
      <point x="216" y="50" type="curve" smooth="yes"/>
      <point x="354" y="3"/>
      <point x="508" y="-22"/>
      <point x="646" y="-22" type="curve" smooth="yes"/>
    </contour>
  </outline>
</glyph>
<glyph name="u" format="1">
  <advance width="1228"/>
  <unicode hex="0075"/>
  <outline>
    <contour>
      <point x="871" y="924" type="line" smooth="yes"/>
      <point x="826" y="924"/>
      <point x="808" y="906"/>
      <point x="808" y="861" type="curve" smooth="yes"/>
      <point x="808" y="566" type="line" smooth="yes"/>
      <point x="808" y="378"/>
      <point x="672" y="215"/>
      <point x="543" y="215" type="curve" smooth="yes"/>
      <point x="445" y="215"/>
      <point x="406" y="275"/>
      <point x="406" y="373" type="curve" smooth="yes"/>
      <point x="406" y="861" type="line" smooth="yes"/>
      <point x="406" y="906"/>
      <point x="388" y="924"/>
      <point x="343" y="924" type="curve" smooth="yes"/>
      <point x="219" y="924" type="line" smooth="yes"/>
      <point x="174" y="924"/>
      <point x="156" y="906"/>
      <point x="156" y="861" type="curve" smooth="yes"/>
      <point x="156" y="314" type="line" smooth="yes"/>
      <point x="156" y="114"/>
      <point x="279" y="-22"/>
      <point x="478" y="-22" type="curve" smooth="yes"/>
      <point x="623" y="-22"/>
      <point x="748" y="61"/>
      <point x="838" y="188" type="curve"/>
      <point x="838" y="63" type="line" smooth="yes"/>
      <point x="838" y="18"/>
      <point x="856" y="0"/>
      <point x="901" y="0" type="curve" smooth="yes"/>
      <point x="995" y="0" type="line" smooth="yes"/>
      <point x="1040" y="0"/>
      <point x="1058" y="18"/>
      <point x="1058" y="63" type="curve" smooth="yes"/>
      <point x="1058" y="861" type="line" smooth="yes"/>
      <point x="1058" y="906"/>
      <point x="1040" y="924"/>
      <point x="995" y="924" type="curve" smooth="yes"/>
    </contour>
  </outline>
</glyph>
<glyph name="y" format="1">
  <advance width="1228"/>
  <unicode hex="0079"/>
  <outline>
    <contour>
      <point x="924" y="948"/>
      <point x="885" y="941"/>
      <point x="867" y="897" type="curve" smooth="yes"/>
      <point x="617" y="298" type="line"/>
      <point x="366" y="897" type="line" smooth="yes"/>
      <point x="347" y="941"/>
      <point x="306" y="948"/>
      <point x="213" y="926" type="curve" smooth="yes"/>
      <point x="119" y="904"/>
      <point x="94" y="872"/>
      <point x="114" y="827" type="curve" smooth="yes"/>
      <point x="513" y="-76" type="line"/>
      <point x="519" y="88" type="line"/>
      <point x="328" y="-285" type="line" smooth="yes"/>
      <point x="306" y="-328"/>
      <point x="328" y="-361"/>
      <point x="422" y="-388" type="curve" smooth="yes"/>
      <point x="515" y="-415"/>
      <point x="557" y="-410"/>
      <point x="577" y="-366" type="curve" smooth="yes"/>
      <point x="1114" y="827" type="line" smooth="yes"/>
      <point x="1134" y="872"/>
      <point x="1111" y="904"/>
      <point x="1017" y="926" type="curve" smooth="yes"/>
    </contour>
  </outline>
</glyph>
<glyph name="z" format="1">
  <advance width="1228"/>
  <unicode hex="007A"/>
  <outline>
    <contour>
      <point x="693" y="924" type="line"/>
      <point x="693" y="719" type="line"/>
      <point x="170" y="184" type="line" smooth="yes"/>
      <point x="146" y="159"/>
      <point x="138" y="138"/>
      <point x="138" y="102" type="curve" smooth="yes"/>
      <point x="138" y="17"/>
      <point x="156" y="0"/>
      <point x="201" y="0" type="curve" smooth="yes"/>
      <point x="525" y="0" type="line"/>
      <point x="525" y="205" type="line"/>
      <point x="1048" y="740" type="line" smooth="yes"/>
      <point x="1072" y="765"/>
      <point x="1080" y="786"/>
      <point x="1080" y="822" type="curve" smooth="yes"/>
      <point x="1080" y="907"/>
      <point x="1062" y="924"/>
      <point x="1017" y="924" type="curve" smooth="yes"/>
    </contour>
    <contour>
      <point x="403" y="225" type="line"/>
      <point x="403" y="0" type="line"/>
      <point x="1027" y="0" type="line"/>
      <point x="1072" y="0"/>
      <point x="1090" y="23"/>
      <point x="1090" y="113" type="curve" smooth="yes"/>
      <point x="1090" y="203"/>
      <point x="1072" y="225"/>
      <point x="1027" y="225" type="curve" smooth="yes"/>
    </contour>
    <contour>
      <point x="211" y="924" type="line" smooth="yes"/>
      <point x="166" y="924"/>
      <point x="148" y="901"/>
      <point x="148" y="811" type="curve" smooth="yes"/>
      <point x="148" y="721"/>
      <point x="166" y="699"/>
      <point x="211" y="699" type="curve" smooth="yes"/>
      <point x="825" y="699" type="line"/>
      <point x="825" y="924" type="line"/>
    </contour>
  </outline>
</glyph>
<glyph name="cent" format="1">
  <advance width="1228"/>
  <unicode hex="00A2"/>
  <outline>
    <contour>
      <point x="573" y="1312"/>
      <point x="555" y="1294"/>
      <point x="555" y="1249" type="curve" smooth="yes"/>
      <point x="555" y="-62" type="line" smooth="yes"/>
      <point x="555" y="-107"/>
      <point x="573" y="-125"/>
      <point x="648" y="-125" type="curve" smooth="yes"/>
      <point x="723" y="-125"/>
      <point x="741" y="-107"/>
      <point x="741" y="-62" type="curve" smooth="yes"/>
      <point x="741" y="1249" type="line" smooth="yes"/>
      <point x="741" y="1294"/>
      <point x="723" y="1312"/>
      <point x="648" y="1312" type="curve" smooth="yes"/>
    </contour>
    <component base="c" yOffset="140"/>
  </outline>
</glyph>
<glyph name="sterling" format="1">
  <advance width="1228"/>
  <unicode hex="00A3"/>
  <outline>
    <contour>
      <point x="428" y="1209"/>
      <point x="291" y="1057"/>
      <point x="291" y="857" type="curve" smooth="yes"/>
      <point x="291" y="689"/>
      <point x="386" y="598"/>
      <point x="386" y="445" type="curve" smooth="yes"/>
      <point x="386" y="343"/>
      <point x="344" y="277"/>
      <point x="261" y="204" type="curve" smooth="yes"/>
      <point x="244" y="189"/>
      <point x="234" y="172"/>
      <point x="234" y="144" type="curve" smooth="yes"/>
      <point x="233" y="77"/>
      <point x="271" y="0"/>
      <point x="301" y="0" type="curve" smooth="yes"/>
      <point x="955" y="0" type="line" smooth="yes"/>
      <point x="1000" y="0"/>
      <point x="1018" y="17"/>
      <point x="1018" y="112" type="curve" smooth="yes"/>
      <point x="1018" y="207"/>
      <point x="1000" y="225"/>
      <point x="955" y="225" type="curve" smooth="yes"/>
      <point x="535" y="225" type="line"/>
      <point x="599" y="299"/>
      <point x="637" y="376"/>
      <point x="637" y="469" type="curve" smooth="yes"/>
      <point x="637" y="650"/>
      <point x="545" y="709"/>
      <point x="545" y="848" type="curve" smooth="yes"/>
      <point x="545" y="929"/>
      <point x="594" y="982"/>
      <point x="678" y="982" type="curve" smooth="yes"/>
      <point x="748" y="982"/>
      <point x="818" y="964"/>
      <point x="884" y="936" type="curve" smooth="yes"/>
      <point x="916" y="923"/>
      <point x="947" y="937"/>
      <point x="977" y="1014" type="curve" smooth="yes"/>
      <point x="1008" y="1091"/>
      <point x="995" y="1129"/>
      <point x="956" y="1148" type="curve" smooth="yes"/>
      <point x="876" y="1187"/>
      <point x="774" y="1209"/>
      <point x="670" y="1209" type="curve" smooth="yes"/>
    </contour>
    <contour>
      <point x="253" y="690" type="line" smooth="yes"/>
      <point x="208" y="690"/>
      <point x="190" y="672"/>
      <point x="190" y="577" type="curve" smooth="yes"/>
      <point x="190" y="482"/>
      <point x="208" y="465"/>
      <point x="253" y="465" type="curve" smooth="yes"/>
      <point x="865" y="465" type="line" smooth="yes"/>
      <point x="910" y="465"/>
      <point x="928" y="482"/>
      <point x="928" y="577" type="curve" smooth="yes"/>
      <point x="928" y="672"/>
      <point x="910" y="690"/>
      <point x="865" y="690" type="curve" smooth="yes"/>
    </contour>
  </outline>
</glyph>
<glyph name="yen" format="1">
  <advance width="1228"/>
  <unicode hex="00A5"/>
  <outline>
    <contour>
      <point x="203" y="492" type="line" smooth="yes"/>
      <point x="158" y="492"/>
      <point x="140" y="474"/>
      <point x="140" y="379" type="curve" smooth="yes"/>
      <point x="140" y="284"/>
      <point x="158" y="267"/>
      <point x="203" y="267" type="curve" smooth="yes"/>
      <point x="1025" y="267" type="line" smooth="yes"/>
      <point x="1070" y="267"/>
      <point x="1088" y="284"/>
      <point x="1088" y="379" type="curve" smooth="yes"/>
      <point x="1088" y="474"/>
      <point x="1070" y="492"/>
      <point x="1025" y="492" type="curve" smooth="yes"/>
    </contour>
    <contour>
      <point x="183" y="850" type="line" smooth="yes"/>
      <point x="138" y="850"/>
      <point x="120" y="832"/>
      <point x="120" y="737" type="curve" smooth="yes"/>
      <point x="120" y="642"/>
      <point x="138" y="625"/>
      <point x="183" y="625" type="curve" smooth="yes"/>
      <point x="530" y="625" type="line"/>
      <point x="441" y="850" type="line"/>
    </contour>
    <contour>
      <point x="813" y="850" type="line"/>
      <point x="712" y="625" type="line"/>
      <point x="1045" y="625" type="line" smooth="yes"/>
      <point x="1090" y="625"/>
      <point x="1108" y="642"/>
      <point x="1108" y="737" type="curve" smooth="yes"/>
      <point x="1108" y="832"/>
      <point x="1090" y="850"/>
      <point x="1045" y="850" type="curve" smooth="yes"/>
    </contour>
    <contour>
      <point x="489" y="564" type="line"/>
      <point x="489" y="63" type="line" smooth="yes"/>
      <point x="489" y="18"/>
      <point x="507" y="0"/>
      <point x="552" y="0" type="curve" smooth="yes"/>
      <point x="676" y="0" type="line" smooth="yes"/>
      <point x="721" y="0"/>
      <point x="739" y="18"/>
      <point x="739" y="63" type="curve" smooth="yes"/>
      <point x="739" y="564" type="line"/>
    </contour>
    <contour>
      <point x="927" y="1209"/>
      <point x="891" y="1210"/>
      <point x="866" y="1169" type="curve" smooth="yes"/>
      <point x="525" y="607" type="line"/>
      <point x="671" y="391" type="line"/>
      <point x="1088" y="1059" type="line" smooth="yes"/>
      <point x="1113" y="1100"/>
      <point x="1105" y="1136"/>
      <point x="1016" y="1173" type="curve" smooth="yes"/>
    </contour>
    <contour>
      <point x="125" y="1136"/>
      <point x="115" y="1100"/>
      <point x="140" y="1059" type="curve" smooth="yes"/>
      <point x="557" y="391" type="line"/>
      <point x="709" y="604" type="line"/>
      <point x="366" y="1169" type="line" smooth="yes"/>
      <point x="341" y="1210"/>
      <point x="303" y="1209"/>
      <point x="214" y="1173" type="curve" smooth="yes"/>
    </contour>
  </outline>
</glyph>
<glyph name="ordfeminine" format="1">
  <advance width="1228"/>
  <unicode hex="00AA"/>
  <outline>
    <contour>
      <point x="540" y="1209"/>
      <point x="430" y="1191"/>
      <point x="334" y="1156" type="curve" smooth="yes"/>
      <point x="293" y="1142"/>
      <point x="294" y="1104"/>
      <point x="309" y="1060" type="curve" smooth="yes"/>
      <point x="329" y="1001"/>
      <point x="353" y="981"/>
      <point x="394" y="994" type="curve" smooth="yes"/>
      <point x="464" y="1017"/>
      <point x="541" y="1035"/>
      <point x="602" y="1035" type="curve" smooth="yes"/>
      <point x="714" y="1035"/>
      <point x="751" y="998"/>
      <point x="751" y="934" type="curve" smooth="yes"/>
      <point x="751" y="912" type="line"/>
      <point x="674" y="927"/>
      <point x="602" y="935"/>
      <point x="534" y="935" type="curve" smooth="yes"/>
      <point x="352" y="935"/>
      <point x="247" y="852"/>
      <point x="247" y="709" type="curve" smooth="yes"/>
      <point x="247" y="559"/>
      <point x="348" y="465"/>
      <point x="524" y="465" type="curve" smooth="yes"/>
      <point x="614" y="465"/>
      <point x="699" y="500"/>
      <point x="772" y="556" type="curve"/>
      <point x="772" y="531" type="line" smooth="yes"/>
      <point x="772" y="496"/>
      <point x="786" y="482"/>
      <point x="821" y="482" type="curve" smooth="yes"/>
      <point x="895" y="482" type="line" smooth="yes"/>
      <point x="930" y="482"/>
      <point x="944" y="496"/>
      <point x="944" y="531" type="curve" smooth="yes"/>
      <point x="944" y="927" type="line" smooth="yes"/>
      <point x="944" y="1100"/>
      <point x="858" y="1209"/>
      <point x="624" y="1209" type="curve" smooth="yes"/>
    </contour>
    <contour>
      <point x="615" y="776"/>
      <point x="680" y="770"/>
      <point x="751" y="756" type="curve"/>
      <point x="751" y="706" type="line"/>
      <point x="694" y="660"/>
      <point x="622" y="627"/>
      <point x="549" y="627" type="curve" smooth="yes"/>
      <point x="481" y="627"/>
      <point x="443" y="653"/>
      <point x="443" y="701" type="curve" smooth="yes"/>
      <point x="443" y="749"/>
      <point x="481" y="776"/>
      <point x="553" y="776" type="curve" smooth="yes"/>
    </contour>
  </outline>
</glyph>
<glyph name="twosuperior" format="1">
  <advance width="1228"/>
  <unicode hex="00B2"/>
  <outline>
    <contour>
      <point x="536" y="1334"/>
      <point x="432" y="1310"/>
      <point x="344" y="1268" type="curve" smooth="yes"/>
      <point x="311" y="1252"/>
      <point x="296" y="1222"/>
      <point x="317" y="1161" type="curve" smooth="yes"/>
      <point x="339" y="1099"/>
      <point x="369" y="1086"/>
      <point x="401" y="1101" type="curve" smooth="yes"/>
      <point x="480" y="1137"/>
      <point x="557" y="1161"/>
      <point x="625" y="1161" type="curve" smooth="yes"/>
      <point x="699" y="1161"/>
      <point x="742" y="1121"/>
      <point x="742" y="1058" type="curve" smooth="yes"/>
      <point x="742" y="1006"/>
      <point x="705" y="965"/>
      <point x="634" y="912" type="curve" smooth="yes"/>
      <point x="307" y="659" type="line" smooth="yes"/>
      <point x="290" y="646"/>
      <point x="279" y="623"/>
      <point x="279" y="583" type="curve" smooth="yes"/>
      <point x="279" y="513"/>
      <point x="300" y="483"/>
      <point x="332" y="483" type="curve" smooth="yes"/>
      <point x="925" y="483" type="line" smooth="yes"/>
      <point x="959" y="483"/>
      <point x="973" y="500"/>
      <point x="973" y="568" type="curve" smooth="yes"/>
      <point x="973" y="636"/>
      <point x="959" y="653"/>
      <point x="925" y="653" type="curve" smooth="yes"/>
      <point x="560" y="653" type="line"/>
      <point x="758" y="796" type="line" smooth="yes"/>
      <point x="870" y="877"/>
      <point x="944" y="957"/>
      <point x="944" y="1067" type="curve" smooth="yes"/>
      <point x="944" y="1225"/>
      <point x="838" y="1334"/>
      <point x="641" y="1334" type="curve" smooth="yes"/>
    </contour>
  </outline>
</glyph>
<glyph name="ordmasculine" format="1">
  <advance width="1228"/>
  <unicode hex="00BA"/>
  <outline>
    <contour>
      <point x="377" y="1209"/>
      <point x="226" y="1052"/>
      <point x="226" y="837" type="curve" smooth="yes"/>
      <point x="226" y="622"/>
      <point x="377" y="465"/>
      <point x="614" y="465" type="curve" smooth="yes"/>
      <point x="852" y="465"/>
      <point x="1002" y="622"/>
      <point x="1002" y="837" type="curve" smooth="yes"/>
      <point x="1002" y="1052"/>
      <point x="852" y="1209"/>
      <point x="614" y="1209" type="curve" smooth="yes"/>
    </contour>
    <contour>
      <point x="726" y="1027"/>
      <point x="800" y="957"/>
      <point x="800" y="837" type="curve" smooth="yes"/>
      <point x="800" y="717"/>
      <point x="726" y="648"/>
      <point x="614" y="648" type="curve" smooth="yes"/>
      <point x="503" y="648"/>
      <point x="428" y="717"/>
      <point x="428" y="837" type="curve" smooth="yes"/>
      <point x="428" y="957"/>
      <point x="503" y="1027"/>
      <point x="614" y="1027" type="curve" smooth="yes"/>
    </contour>
  </outline>
</glyph>
<glyph name="onehalf" format="1">
  <advance width="1228"/>
  <unicode hex="00BD"/>
  <outline>
    <contour>
      <point x="874" y="494"/>
      <point x="787" y="474"/>
      <point x="713" y="439" type="curve" smooth="yes"/>
      <point x="686" y="425"/>
      <point x="673" y="400"/>
      <point x="691" y="349" type="curve" smooth="yes"/>
      <point x="709" y="298"/>
      <point x="734" y="287"/>
      <point x="761" y="299" type="curve" smooth="yes"/>
      <point x="827" y="329"/>
      <point x="891" y="349"/>
      <point x="948" y="349" type="curve" smooth="yes"/>
      <point x="1010" y="349"/>
      <point x="1046" y="316"/>
      <point x="1046" y="263" type="curve" smooth="yes"/>
      <point x="1046" y="220"/>
      <point x="1015" y="186"/>
      <point x="955" y="142" type="curve" smooth="yes"/>
      <point x="682" y="-69" type="line" smooth="yes"/>
      <point x="668" y="-80"/>
      <point x="659" y="-99"/>
      <point x="659" y="-133" type="curve" smooth="yes"/>
      <point x="659" y="-191"/>
      <point x="676" y="-216"/>
      <point x="703" y="-216" type="curve" smooth="yes"/>
      <point x="1198" y="-216" type="line" smooth="yes"/>
      <point x="1227" y="-216"/>
      <point x="1238" y="-202"/>
      <point x="1238" y="-145" type="curve" smooth="yes"/>
      <point x="1238" y="-89"/>
      <point x="1227" y="-74"/>
      <point x="1198" y="-74" type="curve" smooth="yes"/>
      <point x="894" y="-74" type="line"/>
      <point x="1059" y="45" type="line" smooth="yes"/>
      <point x="1152" y="112"/>
      <point x="1214" y="179"/>
      <point x="1214" y="271" type="curve" smooth="yes"/>
      <point x="1214" y="403"/>
      <point x="1126" y="494"/>
      <point x="961" y="494" type="curve" smooth="yes"/>
    </contour>
    <contour>
      <point x="105" y="369" type="line" smooth="yes"/>
      <point x="77" y="353"/>
      <point x="79" y="326"/>
      <point x="109" y="280" type="curve" smooth="yes"/>
      <point x="139" y="234"/>
      <point x="162" y="228"/>
      <point x="185" y="240" type="curve" smooth="yes"/>
      <point x="1122" y="761" type="line" smooth="yes"/>
      <point x="1150" y="777"/>
      <point x="1148" y="804"/>
      <point x="1118" y="850" type="curve" smooth="yes"/>
      <point x="1088" y="896"/>
      <point x="1065" y="902"/>
      <point x="1042" y="890" type="curve" smooth="yes"/>
    </contour>
    <contour>
      <point x="8" y="1263" type="line" smooth="yes"/>
      <point x="-25" y="1248"/>
      <point x="-26" y="1218"/>
      <point x="-6" y="1175" type="curve" smooth="yes"/>
      <point x="18" y="1123"/>
      <point x="44" y="1118"/>
      <point x="73" y="1133" type="curve" smooth="yes"/>
      <point x="286" y="1243" type="line"/>
      <point x="189" y="1298" type="line"/>
      <point x="189" y="826" type="line"/>
      <point x="32" y="826" type="line" smooth="yes"/>
      <point x="1" y="826"/>
      <point x="-11" y="804"/>
      <point x="-11" y="755" type="curve" smooth="yes"/>
      <point x="-11" y="705"/>
      <point x="0" y="684"/>
      <point x="32" y="684" type="curve" smooth="yes"/>
      <point x="503" y="684" type="line" smooth="yes"/>
      <point x="533" y="684"/>
      <point x="546" y="705"/>
      <point x="546" y="755" type="curve" smooth="yes"/>
      <point x="546" y="804"/>
      <point x="533" y="826"/>
      <point x="503" y="826" type="curve" smooth="yes"/>
      <point x="351" y="826" type="line"/>
      <point x="351" y="1344" type="line" smooth="yes"/>
      <point x="351" y="1390"/>
      <point x="300" y="1404"/>
      <point x="265" y="1387" type="curve" smooth="yes"/>
    </contour>
  </outline>
</glyph>
<glyph name="Eth" format="1">
  <advance width="1228"/>
  <unicode hex="00D0"/>
  <outline>
    <contour>
      <point x="253" y="1187" type="line" smooth="yes"/>
      <point x="208" y="1187"/>
      <point x="190" y="1169"/>
      <point x="190" y="1124" type="curve" smooth="yes"/>
      <point x="190" y="63" type="line" smooth="yes"/>
      <point x="190" y="18"/>
      <point x="208" y="0"/>
      <point x="253" y="0" type="curve" smooth="yes"/>
      <point x="574" y="0" type="line" smooth="yes"/>
      <point x="924" y="0"/>
      <point x="1132" y="214"/>
      <point x="1132" y="594" type="curve" smooth="yes"/>
      <point x="1132" y="974"/>
      <point x="924" y="1187"/>
      <point x="574" y="1187" type="curve" smooth="yes"/>
    </contour>
    <contour>
      <point x="103" y="719" type="line" smooth="yes"/>
      <point x="58" y="719"/>
      <point x="40" y="701"/>
      <point x="40" y="606" type="curve" smooth="yes"/>
      <point x="40" y="511"/>
      <point x="58" y="494"/>
      <point x="103" y="494" type="curve" smooth="yes"/>
      <point x="615" y="494" type="line" smooth="yes"/>
      <point x="660" y="494"/>
      <point x="678" y="511"/>
      <point x="678" y="606" type="curve" smooth="yes"/>
      <point x="678" y="701"/>
      <point x="660" y="719"/>
      <point x="615" y="719" type="curve" smooth="yes"/>
    </contour>
    <contour>
      <point x="761" y="952"/>
      <point x="870" y="832"/>
      <point x="870" y="594" type="curve" smooth="yes"/>
      <point x="870" y="356"/>
      <point x="761" y="235"/>
      <point x="554" y="235" type="curve" smooth="yes"/>
      <point x="440" y="235" type="line"/>
      <point x="440" y="952" type="line"/>
      <point x="554" y="952" type="line" smooth="yes"/>
    </contour>
  </outline>
</glyph>
<glyph name="germandbls" format="1">
  <advance width="1228"/>
  <unicode hex="00DF"/>
  <outline>
    <contour>
      <point x="346" y="1317"/>
      <point x="188" y="1144"/>
      <point x="188" y="877" type="curve" smooth="yes"/>
      <point x="188" y="63" type="line" smooth="yes"/>
      <point x="188" y="18"/>
      <point x="206" y="0"/>
      <point x="251" y="0" type="curve" smooth="yes"/>
      <point x="375" y="0" type="line" smooth="yes"/>
      <point x="420" y="0"/>
      <point x="438" y="18"/>
      <point x="438" y="63" type="curve" smooth="yes"/>
      <point x="438" y="874" type="line" smooth="yes"/>
      <point x="438" y="1015"/>
      <point x="501" y="1090"/>
      <point x="615" y="1090" type="curve" smooth="yes"/>
      <point x="733" y="1090"/>
      <point x="783" y="1023"/>
      <point x="783" y="936" type="curve" smooth="yes"/>
      <point x="783" y="837"/>
      <point x="735" y="783"/>
      <point x="642" y="774" type="curve" smooth="yes"/>
      <point x="597" y="770"/>
      <point x="579" y="746"/>
      <point x="579" y="661" type="curve" smooth="yes"/>
      <point x="579" y="576"/>
      <point x="597" y="549"/>
      <point x="642" y="549" type="curve" smooth="yes"/>
      <point x="755" y="549"/>
      <point x="824" y="491"/>
      <point x="824" y="387" type="curve" smooth="yes"/>
      <point x="824" y="267"/>
      <point x="758" y="205"/>
      <point x="629" y="205" type="curve" smooth="yes"/>
      <point x="584" y="205"/>
      <point x="572" y="176"/>
      <point x="572" y="91" type="curve" smooth="yes"/>
      <point x="572" y="6"/>
      <point x="598" y="-22"/>
      <point x="649" y="-22" type="curve" smooth="yes"/>
      <point x="911" y="-22"/>
      <point x="1086" y="107"/>
      <point x="1086" y="367" type="curve" smooth="yes"/>
      <point x="1086" y="520"/>
      <point x="1009" y="627"/>
      <point x="875" y="678" type="curve"/>
      <point x="980" y="735"/>
      <point x="1033" y="820"/>
      <point x="1033" y="946" type="curve" smooth="yes"/>
      <point x="1033" y="1163"/>
      <point x="887" y="1317"/>
      <point x="617" y="1317" type="curve" smooth="yes"/>
    </contour>
  </outline>
</glyph>
<glyph name="thorn" format="1">
  <advance width="1228"/>
  <unicode hex="00FE"/>
  <outline>
    <contour>
      <point x="230" y="1312" type="line" smooth="yes"/>
      <point x="185" y="1312"/>
      <point x="167" y="1294"/>
      <point x="167" y="1249" type="curve" smooth="yes"/>
      <point x="167" y="-325" type="line" smooth="yes"/>
      <point x="167" y="-370"/>
      <point x="185" y="-388"/>
      <point x="230" y="-388" type="curve" smooth="yes"/>
      <point x="354" y="-388" type="line" smooth="yes"/>
      <point x="399" y="-388"/>
      <point x="417" y="-370"/>
      <point x="417" y="-325" type="curve" smooth="yes"/>
      <point x="417" y="96" type="line"/>
      <point x="484" y="22"/>
      <point x="574" y="-22"/>
      <point x="680" y="-22" type="curve" smooth="yes"/>
      <point x="949" y="-22"/>
      <point x="1105" y="192"/>
      <point x="1105" y="462" type="curve" smooth="yes"/>
      <point x="1105" y="732"/>
      <point x="949" y="946"/>
      <point x="680" y="946" type="curve" smooth="yes"/>
      <point x="574" y="946"/>
      <point x="484" y="902"/>
      <point x="417" y="828" type="curve"/>
      <point x="417" y="1249" type="line" smooth="yes"/>
      <point x="417" y="1294"/>
      <point x="399" y="1312"/>
      <point x="354" y="1312" type="curve" smooth="yes"/>
    </contour>
    <contour>
      <point x="765" y="714"/>
      <point x="843" y="616"/>
      <point x="843" y="462" type="curve" smooth="yes"/>
      <point x="843" y="308"/>
      <point x="765" y="210"/>
      <point x="640" y="210" type="curve" smooth="yes"/>
      <point x="515" y="210"/>
      <point x="410" y="298"/>
      <point x="410" y="462" type="curve" smooth="yes"/>
      <point x="410" y="626"/>
      <point x="515" y="714"/>
      <point x="640" y="714" type="curve" smooth="yes"/>
    </contour>
  </outline>
</glyph>
<glyph name="Aogonek" format="1">
  <advance width="1228"/>
  <unicode hex="0104"/>
  <outline>
    <contour>
      <point x="531" y="1209"/>
      <point x="494" y="1191"/>
      <point x="476" y="1144" type="curve" smooth="yes"/>
      <point x="77" y="97" type="line" smooth="yes"/>
      <point x="60" y="52"/>
      <point x="78" y="20"/>
      <point x="172" y="-2" type="curve" smooth="yes"/>
      <point x="265" y="-24"/>
      <point x="304" y="-17"/>
      <point x="321" y="27" type="curve" smooth="yes"/>
      <point x="392" y="220" type="line"/>
      <point x="830" y="220" type="line"/>
      <point x="903" y="17" type="line"/>
      <point x="784" y="-59"/>
      <point x="691" y="-145"/>
      <point x="691" y="-269" type="curve" smooth="yes"/>
      <point x="691" y="-402"/>
      <point x="781" y="-472"/>
      <point x="937" y="-472" type="curve" smooth="yes"/>
      <point x="1010" y="-472"/>
      <point x="1087" y="-460"/>
      <point x="1153" y="-438" type="curve" smooth="yes"/>
      <point x="1183" y="-428"/>
      <point x="1196" y="-402"/>
      <point x="1192" y="-343" type="curve" smooth="yes"/>
      <point x="1188" y="-280"/>
      <point x="1169" y="-260"/>
      <point x="1142" y="-265" type="curve" smooth="yes"/>
      <point x="1102" y="-272"/>
      <point x="1061" y="-278"/>
      <point x="1022" y="-278" type="curve" smooth="yes"/>
      <point x="965" y="-278"/>
      <point x="934" y="-256"/>
      <point x="934" y="-211" type="curve" smooth="yes"/>
      <point x="934" y="-147"/>
      <point x="996" y="-69"/>
      <point x="1127" y="28" type="curve" smooth="yes"/>
      <point x="1153" y="47"/>
      <point x="1156" y="69"/>
      <point x="1146" y="97" type="curve" smooth="yes"/>
      <point x="760" y="1144" type="line" smooth="yes"/>
      <point x="743" y="1190"/>
      <point x="707" y="1209"/>
      <point x="619" y="1209" type="curve" smooth="yes"/>
    </contour>
    <contour>
      <point x="755" y="455" type="line"/>
      <point x="471" y="455" type="line"/>
      <point x="613" y="865" type="line"/>
      <point x="617" y="865" type="line"/>
    </contour>
  </outline>
</glyph>
<glyph name="aogonek" format="1">
  <advance width="1228"/>
  <unicode hex="0105"/>
  <outline>
    <contour>
      <point x="518" y="946"/>
      <point x="375" y="927"/>
      <point x="250" y="882" type="curve" smooth="yes"/>
      <point x="203" y="865"/>
      <point x="190" y="822"/>
      <point x="219" y="742" type="curve" smooth="yes"/>
      <point x="248" y="662"/>
      <point x="286" y="652"/>
      <point x="328" y="666" type="curve" smooth="yes"/>
      <point x="419" y="697"/>
      <point x="522" y="719"/>
      <point x="603" y="719" type="curve" smooth="yes"/>
      <point x="749" y="719"/>
      <point x="793" y="674"/>
      <point x="793" y="588" type="curve" smooth="yes"/>
      <point x="793" y="559" type="line"/>
      <point x="693" y="579"/>
      <point x="599" y="589"/>
      <point x="510" y="589" type="curve" smooth="yes"/>
      <point x="277" y="589"/>
      <point x="140" y="482"/>
      <point x="140" y="295" type="curve" smooth="yes"/>
      <point x="140" y="100"/>
      <point x="272" y="-22"/>
      <point x="498" y="-22" type="curve" smooth="yes"/>
      <point x="616" y="-22"/>
      <point x="726" y="20"/>
      <point x="823" y="89" type="curve"/>
      <point x="823" y="17" type="line"/>
      <point x="704" y="-59"/>
      <point x="611" y="-145"/>
      <point x="611" y="-269" type="curve" smooth="yes"/>
      <point x="611" y="-402"/>
      <point x="701" y="-472"/>
      <point x="857" y="-472" type="curve" smooth="yes"/>
      <point x="930" y="-472"/>
      <point x="1007" y="-460"/>
      <point x="1073" y="-438" type="curve" smooth="yes"/>
      <point x="1103" y="-428"/>
      <point x="1116" y="-402"/>
      <point x="1112" y="-343" type="curve" smooth="yes"/>
      <point x="1108" y="-280"/>
      <point x="1089" y="-260"/>
      <point x="1062" y="-265" type="curve" smooth="yes"/>
      <point x="1022" y="-272"/>
      <point x="981" y="-278"/>
      <point x="942" y="-278" type="curve" smooth="yes"/>
      <point x="885" y="-278"/>
      <point x="854" y="-256"/>
      <point x="854" y="-211" type="curve" smooth="yes"/>
      <point x="854" y="-151"/>
      <point x="909" y="-78"/>
      <point x="1025" y="11" type="curve" smooth="yes"/>
      <point x="1038" y="21"/>
      <point x="1043" y="38"/>
      <point x="1043" y="63" type="curve" smooth="yes"/>
      <point x="1043" y="579" type="line" smooth="yes"/>
      <point x="1043" y="804"/>
      <point x="932" y="946"/>
      <point x="627" y="946" type="curve" smooth="yes"/>
    </contour>
    <contour>
      <point x="616" y="383"/>
      <point x="700" y="375"/>
      <point x="793" y="356" type="curve"/>
      <point x="793" y="292" type="line"/>
      <point x="718" y="231"/>
      <point x="625" y="189"/>
      <point x="530" y="189" type="curve" smooth="yes"/>
      <point x="441" y="189"/>
      <point x="392" y="222"/>
      <point x="392" y="285" type="curve" smooth="yes"/>
      <point x="392" y="348"/>
      <point x="441" y="383"/>
      <point x="535" y="383" type="curve" smooth="yes"/>
    </contour>
  </outline>
</glyph>
<glyph name="eogonek" format="1">
  <advance width="1228"/>
  <unicode hex="0119"/>
  <outline>
    <contour>
      <point x="319" y="946"/>
      <point x="134" y="742"/>
      <point x="134" y="462" type="curve" smooth="yes"/>
      <point x="134" y="182"/>
      <point x="309" y="-22"/>
      <point x="618" y="-22" type="curve" smooth="yes"/>
      <point x="650" y="-22"/>
      <point x="683" y="-20"/>
      <point x="716" y="-16" type="curve"/>
      <point x="621" y="-84"/>
      <point x="553" y="-163"/>
      <point x="553" y="-269" type="curve" smooth="yes"/>
      <point x="553" y="-402"/>
      <point x="643" y="-472"/>
      <point x="799" y="-472" type="curve" smooth="yes"/>
      <point x="872" y="-472"/>
      <point x="949" y="-460"/>
      <point x="1015" y="-438" type="curve" smooth="yes"/>
      <point x="1045" y="-428"/>
      <point x="1058" y="-402"/>
      <point x="1054" y="-343" type="curve" smooth="yes"/>
      <point x="1050" y="-280"/>
      <point x="1031" y="-260"/>
      <point x="1004" y="-265" type="curve" smooth="yes"/>
      <point x="964" y="-272"/>
      <point x="923" y="-278"/>
      <point x="884" y="-278" type="curve" smooth="yes"/>
      <point x="827" y="-278"/>
      <point x="796" y="-256"/>
      <point x="796" y="-211" type="curve" smooth="yes"/>
      <point x="796" y="-147"/>
      <point x="858" y="-69"/>
      <point x="989" y="28" type="curve" smooth="yes"/>
      <point x="1003" y="38"/>
      <point x="1018" y="45"/>
      <point x="1035" y="52" type="curve" smooth="yes"/>
      <point x="1076" y="69"/>
      <point x="1086" y="99"/>
      <point x="1065" y="176" type="curve" smooth="yes"/>
      <point x="1043" y="258"/>
      <point x="1017" y="273"/>
      <point x="974" y="260" type="curve" smooth="yes"/>
      <point x="849" y="222"/>
      <point x="740" y="205"/>
      <point x="638" y="205" type="curve" smooth="yes"/>
      <point x="509" y="205"/>
      <point x="421" y="262"/>
      <point x="395" y="370" type="curve"/>
      <point x="1037" y="370" type="line" smooth="yes"/>
      <point x="1082" y="370"/>
      <point x="1100" y="387"/>
      <point x="1100" y="432" type="curve" smooth="yes"/>
      <point x="1100" y="729"/>
      <point x="940" y="946"/>
      <point x="628" y="946" type="curve" smooth="yes"/>
    </contour>
    <contour>
      <point x="743" y="719"/>
      <point x="823" y="661"/>
      <point x="845" y="565" type="curve"/>
      <point x="399" y="565" type="line"/>
      <point x="428" y="669"/>
      <point x="508" y="719"/>
      <point x="628" y="719" type="curve" smooth="yes"/>
    </contour>
  </outline>
</glyph>
<glyph name="hbar" format="1">
  <advance width="1228"/>
  <unicode hex="0127"/>
  <outline>
    <contour>
      <point x="253" y="1312" type="line" smooth="yes"/>
      <point x="208" y="1312"/>
      <point x="190" y="1294"/>
      <point x="190" y="1249" type="curve" smooth="yes"/>
      <point x="190" y="63" type="line" smooth="yes"/>
      <point x="190" y="18"/>
      <point x="208" y="0"/>
      <point x="253" y="0" type="curve" smooth="yes"/>
      <point x="377" y="0" type="line" smooth="yes"/>
      <point x="422" y="0"/>
      <point x="440" y="18"/>
      <point x="440" y="63" type="curve" smooth="yes"/>
      <point x="440" y="308" type="line" smooth="yes"/>
      <point x="440" y="471"/>
      <point x="566" y="609"/>
      <point x="685" y="609" type="curve" smooth="yes"/>
      <point x="767" y="609"/>
      <point x="802" y="556"/>
      <point x="802" y="471" type="curve" smooth="yes"/>
      <point x="802" y="63" type="line" smooth="yes"/>
      <point x="802" y="18"/>
      <point x="820" y="0"/>
      <point x="865" y="0" type="curve" smooth="yes"/>
      <point x="989" y="0" type="line" smooth="yes"/>
      <point x="1034" y="0"/>
      <point x="1052" y="18"/>
      <point x="1052" y="63" type="curve" smooth="yes"/>
      <point x="1052" y="520" type="line" smooth="yes"/>
      <point x="1052" y="718"/>
      <point x="937" y="846"/>
      <point x="750" y="846" type="curve" smooth="yes"/>
      <point x="604" y="846"/>
      <point x="480" y="757"/>
      <point x="391" y="623" type="curve"/>
      <point x="440" y="596" type="line"/>
      <point x="440" y="1249" type="line" smooth="yes"/>
      <point x="440" y="1294"/>
      <point x="422" y="1312"/>
      <point x="377" y="1312" type="curve" smooth="yes"/>
    </contour>
    <contour>
      <point x="83" y="1155" type="line" smooth="yes"/>
      <point x="38" y="1155"/>
      <point x="20" y="1137"/>
      <point x="20" y="1052" type="curve" smooth="yes"/>
      <point x="20" y="967"/>
      <point x="38" y="950"/>
      <point x="83" y="950" type="curve" smooth="yes"/>
      <point x="645" y="950" type="line" smooth="yes"/>
      <point x="690" y="950"/>
      <point x="708" y="967"/>
      <point x="708" y="1052" type="curve" smooth="yes"/>
      <point x="708" y="1137"/>
      <point x="690" y="1155"/>
      <point x="645" y="1155" type="curve" smooth="yes"/>
    </contour>
  </outline>
</glyph>
<glyph name="ij" format="1">
  <advance width="1228"/>
  <unicode hex="0133"/>
  <outline>
    <contour>
      <point x="847" y="924" type="line" smooth="yes"/>
      <point x="802" y="924"/>
      <point x="784" y="906"/>
      <point x="784" y="861" type="curve" smooth="yes"/>
      <point x="784" y="-39" type="line" smooth="yes"/>
      <point x="784" y="-135"/>
      <point x="746" y="-173"/>
      <point x="665" y="-173" type="curve" smooth="yes"/>
      <point x="628" y="-173"/>
      <point x="572" y="-162"/>
      <point x="524" y="-147" type="curve" smooth="yes"/>
      <point x="483" y="-134"/>
      <point x="451" y="-153"/>
      <point x="430" y="-235" type="curve" smooth="yes"/>
      <point x="409" y="-319"/>
      <point x="419" y="-353"/>
      <point x="463" y="-370" type="curve" smooth="yes"/>
      <point x="531" y="-396"/>
      <point x="607" y="-410"/>
      <point x="672" y="-410" type="curve" smooth="yes"/>
      <point x="911" y="-410"/>
      <point x="1034" y="-292"/>
      <point x="1034" y="-55" type="curve" smooth="yes"/>
      <point x="1034" y="861" type="line" smooth="yes"/>
      <point x="1034" y="906"/>
      <point x="1016" y="924"/>
      <point x="971" y="924" type="curve" smooth="yes"/>
    </contour>
    <contour>
      <point x="257" y="924" type="line" smooth="yes"/>
      <point x="212" y="924"/>
      <point x="194" y="906"/>
      <point x="194" y="861" type="curve" smooth="yes"/>
      <point x="194" y="63" type="line" smooth="yes"/>
      <point x="194" y="18"/>
      <point x="212" y="0"/>
      <point x="257" y="0" type="curve" smooth="yes"/>
      <point x="381" y="0" type="line" smooth="yes"/>
      <point x="426" y="0"/>
      <point x="444" y="18"/>
      <point x="444" y="63" type="curve" smooth="yes"/>
      <point x="444" y="861" type="line" smooth="yes"/>
      <point x="444" y="906"/>
      <point x="426" y="924"/>
      <point x="381" y="924" type="curve" smooth="yes"/>
    </contour>
    <component base="dotaccent" xOffset="-295"/>
    <component base="dotaccent" xOffset="295"/>
  </outline>
</glyph>
<glyph name="eng" format="1">
  <advance width="1228"/>
  <unicode hex="014B"/>
  <outline>
    <contour>
      <point x="605" y="946"/>
      <point x="480" y="863"/>
      <point x="390" y="736" type="curve"/>
      <point x="390" y="861" type="line" smooth="yes"/>
      <point x="390" y="906"/>
      <point x="372" y="924"/>
      <point x="327" y="924" type="curve" smooth="yes"/>
      <point x="233" y="924" type="line" smooth="yes"/>
      <point x="188" y="924"/>
      <point x="170" y="906"/>
      <point x="170" y="861" type="curve" smooth="yes"/>
      <point x="170" y="63" type="line" smooth="yes"/>
      <point x="170" y="18"/>
      <point x="188" y="0"/>
      <point x="233" y="0" type="curve" smooth="yes"/>
      <point x="357" y="0" type="line" smooth="yes"/>
      <point x="402" y="0"/>
      <point x="420" y="18"/>
      <point x="420" y="63" type="curve" smooth="yes"/>
      <point x="420" y="358" type="line" smooth="yes"/>
      <point x="420" y="546"/>
      <point x="556" y="709"/>
      <point x="685" y="709" type="curve" smooth="yes"/>
      <point x="783" y="709"/>
      <point x="822" y="649"/>
      <point x="822" y="551" type="curve" smooth="yes"/>
      <point x="822" y="-39" type="line" smooth="yes"/>
      <point x="822" y="-135"/>
      <point x="784" y="-173"/>
      <point x="703" y="-173" type="curve" smooth="yes"/>
      <point x="666" y="-173"/>
      <point x="610" y="-162"/>
      <point x="562" y="-147" type="curve" smooth="yes"/>
      <point x="521" y="-134"/>
      <point x="489" y="-153"/>
      <point x="468" y="-235" type="curve" smooth="yes"/>
      <point x="447" y="-319"/>
      <point x="457" y="-353"/>
      <point x="501" y="-370" type="curve" smooth="yes"/>
      <point x="569" y="-396"/>
      <point x="645" y="-410"/>
      <point x="710" y="-410" type="curve" smooth="yes"/>
      <point x="949" y="-410"/>
      <point x="1072" y="-292"/>
      <point x="1072" y="-55" type="curve" smooth="yes"/>
      <point x="1072" y="610" type="line" smooth="yes"/>
      <point x="1072" y="810"/>
      <point x="949" y="946"/>
      <point x="750" y="946" type="curve" smooth="yes"/>
    </contour>
  </outline>
</glyph>
<glyph name="uogonek" format="1">
  <advance width="1228"/>
  <unicode hex="0173"/>
  <outline>
    <contour>
      <point x="871" y="924" type="line" smooth="yes"/>
      <point x="826" y="924"/>
      <point x="808" y="906"/>
      <point x="808" y="861" type="curve" smooth="yes"/>
      <point x="808" y="566" type="line" smooth="yes"/>
      <point x="808" y="378"/>
      <point x="672" y="215"/>
      <point x="543" y="215" type="curve" smooth="yes"/>
      <point x="445" y="215"/>
      <point x="406" y="275"/>
      <point x="406" y="373" type="curve" smooth="yes"/>
      <point x="406" y="861" type="line" smooth="yes"/>
      <point x="406" y="906"/>
      <point x="388" y="924"/>
      <point x="343" y="924" type="curve" smooth="yes"/>
      <point x="219" y="924" type="line" smooth="yes"/>
      <point x="174" y="924"/>
      <point x="156" y="906"/>
      <point x="156" y="861" type="curve" smooth="yes"/>
      <point x="156" y="314" type="line" smooth="yes"/>
      <point x="156" y="114"/>
      <point x="279" y="-22"/>
      <point x="478" y="-22" type="curve" smooth="yes"/>
      <point x="623" y="-22"/>
      <point x="748" y="61"/>
      <point x="838" y="188" type="curve"/>
      <point x="838" y="17" type="line"/>
      <point x="719" y="-59"/>
      <point x="626" y="-145"/>
      <point x="626" y="-269" type="curve" smooth="yes"/>
      <point x="626" y="-402"/>
      <point x="716" y="-472"/>
      <point x="872" y="-472" type="curve" smooth="yes"/>
      <point x="945" y="-472"/>
      <point x="1022" y="-460"/>
      <point x="1088" y="-438" type="curve" smooth="yes"/>
      <point x="1118" y="-428"/>
      <point x="1131" y="-402"/>
      <point x="1127" y="-343" type="curve" smooth="yes"/>
      <point x="1123" y="-280"/>
      <point x="1104" y="-260"/>
      <point x="1077" y="-265" type="curve" smooth="yes"/>
      <point x="1037" y="-272"/>
      <point x="996" y="-278"/>
      <point x="957" y="-278" type="curve" smooth="yes"/>
      <point x="900" y="-278"/>
      <point x="869" y="-256"/>
      <point x="869" y="-211" type="curve" smooth="yes"/>
      <point x="869" y="-151"/>
      <point x="924" y="-78"/>
      <point x="1040" y="11" type="curve" smooth="yes"/>
      <point x="1053" y="21"/>
      <point x="1058" y="38"/>
      <point x="1058" y="63" type="curve" smooth="yes"/>
      <point x="1058" y="861" type="line" smooth="yes"/>
      <point x="1058" y="906"/>
      <point x="1040" y="924"/>
      <point x="995" y="924" type="curve" smooth="yes"/>
    </contour>
  </outline>
</glyph>
<glyph name="won" format="1">
  <advance width="1228"/>
  <unicode hex="20A9"/>
  <outline>
    <contour>
      <point x="23" y="914" type="line" smooth="yes"/>
      <point x="-22" y="914"/>
      <point x="-40" y="898"/>
      <point x="-40" y="811" type="curve" smooth="yes"/>
      <point x="-40" y="725"/>
      <point x="-22" y="709"/>
      <point x="23" y="709" type="curve" smooth="yes"/>
      <point x="540" y="709" type="line"/>
      <point x="603" y="709" type="line"/>
      <point x="673" y="709" type="line"/>
      <point x="1205" y="709" type="line" smooth="yes"/>
      <point x="1250" y="709"/>
      <point x="1268" y="725"/>
      <point x="1268" y="811" type="curve" smooth="yes"/>
      <point x="1268" y="898"/>
      <point x="1250" y="914"/>
      <point x="1205" y="914" type="curve" smooth="yes"/>
    </contour>
    <component base="W"/>
  </outline>
</glyph>
<glyph name="euro" format="1">
  <advance width="1228"/>
  <unicode hex="20AC"/>
  <outline>
    <contour>
      <point x="422" y="1209"/>
      <point x="216" y="974"/>
      <point x="216" y="594" type="curve" smooth="yes"/>
      <point x="216" y="214"/>
      <point x="422" y="-22"/>
      <point x="734" y="-22" type="curve" smooth="yes"/>
      <point x="863" y="-22"/>
      <point x="984" y="7"/>
      <point x="1091" y="60" type="curve" smooth="yes"/>
      <point x="1134" y="81"/>
      <point x="1151" y="122"/>
      <point x="1123" y="203" type="curve" smooth="yes"/>
      <point x="1096" y="283"/>
      <point x="1055" y="299"/>
      <point x="1015" y="280" type="curve" smooth="yes"/>
      <point x="924" y="236"/>
      <point x="841" y="215"/>
      <point x="744" y="215" type="curve" smooth="yes"/>
      <point x="575" y="215"/>
      <point x="478" y="346"/>
      <point x="478" y="594" type="curve" smooth="yes"/>
      <point x="478" y="842"/>
      <point x="575" y="972"/>
      <point x="744" y="972" type="curve" smooth="yes"/>
      <point x="841" y="972"/>
      <point x="924" y="951"/>
      <point x="1015" y="907" type="curve" smooth="yes"/>
      <point x="1055" y="888"/>
      <point x="1096" y="904"/>
      <point x="1123" y="984" type="curve" smooth="yes"/>
      <point x="1151" y="1065"/>
      <point x="1134" y="1106"/>
      <point x="1091" y="1127" type="curve" smooth="yes"/>
      <point x="984" y="1180"/>
      <point x="863" y="1209"/>
      <point x="734" y="1209" type="curve" smooth="yes"/>
    </contour>
    <contour>
      <point x="143" y="532" type="line" smooth="yes"/>
      <point x="98" y="532"/>
      <point x="80" y="513"/>
      <point x="80" y="434" type="curve" smooth="yes"/>
      <point x="80" y="355"/>
      <point x="98" y="337"/>
      <point x="143" y="337" type="curve" smooth="yes"/>
      <point x="775" y="337" type="line" smooth="yes"/>
      <point x="820" y="337"/>
      <point x="838" y="355"/>
      <point x="838" y="434" type="curve" smooth="yes"/>
      <point x="838" y="513"/>
      <point x="820" y="532"/>
      <point x="775" y="532" type="curve" smooth="yes"/>
    </contour>
    <contour>
      <point x="143" y="850" type="line" smooth="yes"/>
      <point x="98" y="850"/>
      <point x="80" y="831"/>
      <point x="80" y="752" type="curve" smooth="yes"/>
      <point x="80" y="673"/>
      <point x="98" y="655"/>
      <point x="143" y="655" type="curve" smooth="yes"/>
      <point x="775" y="655" type="line" smooth="yes"/>
      <point x="820" y="655"/>
      <point x="838" y="673"/>
      <point x="838" y="752" type="curve" smooth="yes"/>
      <point x="838" y="832"/>
      <point x="820" y="850"/>
      <point x="775" y="850" type="curve" smooth="yes"/>
    </contour>
  </outline>
</glyph>
